<svg xmlns="http://www.w3.org/2000/svg" version="1.1" xmlns:xlink="http://www.w3.org/1999/xlink" xmlns:svgjs="http://svgjs.com/svgjs" width="1440" height="560" preserveAspectRatio="none" viewBox="0 0 1440 560"><g mask="url(&quot;#SvgjsMask1192&quot;)" fill="none"><rect width="1440" height="560" x="0" y="0" fill="#0e2a47"></rect><g mask="url(&quot;#SvgjsMask1193&quot;)"><path d="M1060.5 283.5L1039.5 283.5L1018.5 283.5L997.5 283.5L976.5 283.5L955.5 283.5M850.5 304.5L829.5 325.5L808.5 325.5L787.5 325.5L766.5 346.5M1018.5 304.5L997.5 325.5L976.5 325.5L955.5 325.5L934.5 325.5L913.5 325.5L892.5 325.5M1228.5 262.5L1207.5 283.5M1333.5 262.5L1312.5 283.5L1291.5 283.5M1249.5 262.5L1228.5 283.5L1207.5 304.5L1186.5 304.5L1165.5 304.5L1144.5 304.5L1123.5 304.5L1102.5 304.5M808.5 304.5L787.5 283.5L766.5 283.5L745.5 283.5L724.5 283.5L703.5 283.5L682.5 283.5M892.5 304.5L871.5 283.5L850.5 283.5L829.5 283.5L808.5 283.5L787.5 262.5L766.5 241.5L745.5 241.5M1459.5 262.5L1438.5 262.5L1417.5 262.5L1396.5 262.5L1375.5 262.5L1354.5 262.5L1333.5 262.5L1312.5 262.5L1291.5 262.5L1270.5 262.5L1249.5 262.5L1228.5 262.5L1207.5 262.5L1186.5 262.5L1165.5 283.5L1144.5 283.5L1123.5 283.5L1102.5 283.5L1081.5 283.5L1060.5 283.5L1039.5 304.5L1018.5 304.5L997.5 304.5L976.5 304.5L955.5 304.5L934.5 304.5L913.5 304.5L892.5 304.5L871.5 304.5L850.5 304.5L829.5 304.5L808.5 304.5L787.5 304.5" stroke="#dd1133" stroke-width="3.5"></path><path d="M782.25 304.5 a5.25 5.25 0 1 0 10.5 0 a5.25 5.25 0 1 0 -10.5 0zM950.25 283.5 a5.25 5.25 0 1 0 10.5 0 a5.25 5.25 0 1 0 -10.5 0zM761.25 346.5 a5.25 5.25 0 1 0 10.5 0 a5.25 5.25 0 1 0 -10.5 0zM887.25 325.5 a5.25 5.25 0 1 0 10.5 0 a5.25 5.25 0 1 0 -10.5 0zM1202.25 283.5 a5.25 5.25 0 1 0 10.5 0 a5.25 5.25 0 1 0 -10.5 0zM1286.25 283.5 a5.25 5.25 0 1 0 10.5 0 a5.25 5.25 0 1 0 -10.5 0zM1097.25 304.5 a5.25 5.25 0 1 0 10.5 0 a5.25 5.25 0 1 0 -10.5 0zM677.25 283.5 a5.25 5.25 0 1 0 10.5 0 a5.25 5.25 0 1 0 -10.5 0zM740.25 241.5 a5.25 5.25 0 1 0 10.5 0 a5.25 5.25 0 1 0 -10.5 0z" fill="#dd1133"></path><path d="M1417.5 304.5L1396.5 283.5L1375.5 283.5M1333.5 325.5L1312.5 304.5M1438.5 304.5L1417.5 283.5M1459.5 304.5L1438.5 304.5L1417.5 304.5L1396.5 304.5L1375.5 304.5L1354.5 325.5L1333.5 325.5L1312.5 325.5L1291.5 304.5" stroke="rgba(95, 195, 30, 1)" stroke-width="3.5"></path><path d="M1286.25 304.5 a5.25 5.25 0 1 0 10.5 0 a5.25 5.25 0 1 0 -10.5 0zM1370.25 283.5 a5.25 5.25 0 1 0 10.5 0 a5.25 5.25 0 1 0 -10.5 0zM1307.25 304.5 a5.25 5.25 0 1 0 10.5 0 a5.25 5.25 0 1 0 -10.5 0zM1412.25 283.5 a5.25 5.25 0 1 0 10.5 0 a5.25 5.25 0 1 0 -10.5 0z" fill="rgba(95, 195, 30, 1)"></path><path d="M976.5 262.5L955.5 241.5L934.5 241.5L913.5 241.5L892.5 241.5L871.5 241.5L850.5 241.5L829.5 241.5M1333.5 241.5L1312.5 220.5L1291.5 220.5L1270.5 199.5L1249.5 199.5M1207.5 241.5L1186.5 220.5M1123.5 241.5L1102.5 262.5M1270.5 241.5L1249.5 220.5L1228.5 220.5L1207.5 220.5L1186.5 199.5L1165.5 199.5L1144.5 199.5L1123.5 199.5M1018.5 262.5L997.5 241.5L976.5 241.5M1459.5 241.5L1438.5 241.5L1417.5 241.5L1396.5 241.5L1375.5 241.5L1354.5 241.5L1333.5 241.5L1312.5 241.5L1291.5 241.5L1270.5 241.5L1249.5 241.5L1228.5 241.5L1207.5 241.5L1186.5 241.5L1165.5 241.5L1144.5 241.5L1123.5 241.5L1102.5 241.5L1081.5 262.5L1060.5 262.5L1039.5 262.5L1018.5 262.5L997.5 262.5L976.5 262.5L955.5 262.5L934.5 262.5L913.5 262.5" stroke="rgba(69, 90, 48, 1)" stroke-width="3.5"></path><path d="M908.25 262.5 a5.25 5.25 0 1 0 10.5 0 a5.25 5.25 0 1 0 -10.5 0zM824.25 241.5 a5.25 5.25 0 1 0 10.5 0 a5.25 5.25 0 1 0 -10.5 0zM1244.25 199.5 a5.25 5.25 0 1 0 10.5 0 a5.25 5.25 0 1 0 -10.5 0zM1181.25 220.5 a5.25 5.25 0 1 0 10.5 0 a5.25 5.25 0 1 0 -10.5 0zM1097.25 262.5 a5.25 5.25 0 1 0 10.5 0 a5.25 5.25 0 1 0 -10.5 0zM1118.25 199.5 a5.25 5.25 0 1 0 10.5 0 a5.25 5.25 0 1 0 -10.5 0zM971.25 241.5 a5.25 5.25 0 1 0 10.5 0 a5.25 5.25 0 1 0 -10.5 0z" fill="rgba(69, 90, 48, 1)"></path><path d="M1291.5 346.5L1270.5 367.5L1249.5 367.5L1228.5 367.5M1270.5 346.5L1249.5 325.5M1459.5 325.5L1438.5 325.5L1417.5 325.5L1396.5 325.5L1375.5 325.5L1354.5 346.5L1333.5 346.5L1312.5 346.5L1291.5 346.5L1270.5 346.5L1249.5 346.5" stroke="rgba(92, 177, 11, 1)" stroke-width="3.5"></path><path d="M1244.25 346.5 a5.25 5.25 0 1 0 10.5 0 a5.25 5.25 0 1 0 -10.5 0zM1223.25 367.5 a5.25 5.25 0 1 0 10.5 0 a5.25 5.25 0 1 0 -10.5 0zM1244.25 325.5 a5.25 5.25 0 1 0 10.5 0 a5.25 5.25 0 1 0 -10.5 0z" fill="rgba(92, 177, 11, 1)"></path><path d="M1438.5 220.5L1417.5 199.5L1396.5 199.5L1375.5 199.5L1354.5 199.5M1459.5 220.5L1438.5 220.5L1417.5 220.5L1396.5 220.5" stroke="rgba(92, 177, 11, 1)" stroke-width="3.5"></path><path d="M1391.25 220.5 a5.25 5.25 0 1 0 10.5 0 a5.25 5.25 0 1 0 -10.5 0zM1349.25 199.5 a5.25 5.25 0 1 0 10.5 0 a5.25 5.25 0 1 0 -10.5 0z" fill="rgba(92, 177, 11, 1)"></path><path d="M1459.5 346.5L1438.5 346.5L1417.5 346.5L1396.5 346.5" stroke="rgba(255, 255, 255, 1)" stroke-width="3.5"></path><path d="M1391.25 346.5 a5.25 5.25 0 1 0 10.5 0 a5.25 5.25 0 1 0 -10.5 0z" fill="rgba(255, 255, 255, 1)"></path><path d="M1186.5 157.5L1165.5 178.5L1144.5 178.5M1333.5 178.5L1312.5 199.5L1291.5 199.5M1459.5 199.5L1438.5 178.5L1417.5 178.5L1396.5 178.5L1375.5 178.5L1354.5 178.5L1333.5 178.5L1312.5 178.5L1291.5 178.5L1270.5 178.5L1249.5 178.5L1228.5 178.5L1207.5 178.5L1186.5 157.5L1165.5 157.5L1144.5 157.5" stroke="rgba(95, 195, 30, 1)" stroke-width="3.5"></path><path d="M1139.25 157.5 a5.25 5.25 0 1 0 10.5 0 a5.25 5.25 0 1 0 -10.5 0zM1139.25 178.5 a5.25 5.25 0 1 0 10.5 0 a5.25 5.25 0 1 0 -10.5 0zM1286.25 199.5 a5.25 5.25 0 1 0 10.5 0 a5.25 5.25 0 1 0 -10.5 0z" fill="rgba(95, 195, 30, 1)"></path><path d="M1270.5 388.5L1249.5 388.5L1228.5 388.5L1207.5 388.5L1186.5 388.5M1312.5 388.5L1291.5 367.5M1333.5 367.5L1312.5 367.5M1459.5 367.5L1438.5 367.5L1417.5 367.5L1396.5 367.5L1375.5 367.5L1354.5 367.5L1333.5 367.5L1312.5 388.5L1291.5 388.5L1270.5 388.5L1249.5 409.5L1228.5 409.5" stroke="rgba(92, 177, 11, 1)" stroke-width="3.5"></path><path d="M1223.25 409.5 a5.25 5.25 0 1 0 10.5 0 a5.25 5.25 0 1 0 -10.5 0zM1181.25 388.5 a5.25 5.25 0 1 0 10.5 0 a5.25 5.25 0 1 0 -10.5 0zM1286.25 367.5 a5.25 5.25 0 1 0 10.5 0 a5.25 5.25 0 1 0 -10.5 0zM1307.25 367.5 a5.25 5.25 0 1 0 10.5 0 a5.25 5.25 0 1 0 -10.5 0z" fill="rgba(92, 177, 11, 1)"></path><path d="M1312.5 409.5L1291.5 430.5L1270.5 430.5L1249.5 451.5L1228.5 451.5M1354.5 388.5L1333.5 409.5M1438.5 388.5L1417.5 409.5L1396.5 409.5L1375.5 409.5M1459.5 388.5L1438.5 388.5L1417.5 388.5L1396.5 388.5L1375.5 388.5L1354.5 388.5L1333.5 388.5L1312.5 409.5L1291.5 409.5L1270.5 409.5L1249.5 430.5" stroke="rgba(69, 90, 48, 1)" stroke-width="3.5"></path><path d="M1244.25 430.5 a5.25 5.25 0 1 0 10.5 0 a5.25 5.25 0 1 0 -10.5 0zM1223.25 451.5 a5.25 5.25 0 1 0 10.5 0 a5.25 5.25 0 1 0 -10.5 0zM1328.25 409.5 a5.25 5.25 0 1 0 10.5 0 a5.25 5.25 0 1 0 -10.5 0zM1370.25 409.5 a5.25 5.25 0 1 0 10.5 0 a5.25 5.25 0 1 0 -10.5 0z" fill="rgba(69, 90, 48, 1)"></path><path d="M955.5 94.5L934.5 94.5M913.5 115.5L892.5 136.5L871.5 136.5L850.5 136.5L829.5 136.5L808.5 157.5L787.5 157.5L766.5 157.5L745.5 157.5L724.5 157.5L703.5 157.5L682.5 157.5M1144.5 94.5L1123.5 73.5L1102.5 73.5M1102.5 94.5L1081.5 115.5L1060.5 115.5L1039.5 115.5L1018.5 115.5M1228.5 157.5L1207.5 157.5M1396.5 157.5L1375.5 136.5L1354.5 136.5L1333.5 136.5M1039.5 94.5L1018.5 73.5L997.5 73.5M934.5 115.5L913.5 136.5L892.5 157.5L871.5 157.5L850.5 157.5L829.5 157.5M1459.5 157.5L1438.5 157.5L1417.5 157.5L1396.5 157.5L1375.5 157.5L1354.5 157.5L1333.5 157.5L1312.5 157.5L1291.5 157.5L1270.5 157.5L1249.5 157.5L1228.5 157.5L1207.5 136.5L1186.5 115.5L1165.5 94.5L1144.5 94.5L1123.5 94.5L1102.5 94.5L1081.5 94.5L1060.5 94.5L1039.5 94.5L1018.5 94.5L997.5 94.5L976.5 94.5L955.5 94.5L934.5 115.5L913.5 115.5L892.5 115.5L871.5 115.5L850.5 115.5L829.5 115.5L808.5 136.5" stroke="rgba(69, 90, 48, 1)" stroke-width="3.5"></path><path d="M803.25 136.5 a5.25 5.25 0 1 0 10.5 0 a5.25 5.25 0 1 0 -10.5 0zM929.25 94.5 a5.25 5.25 0 1 0 10.5 0 a5.25 5.25 0 1 0 -10.5 0zM677.25 157.5 a5.25 5.25 0 1 0 10.5 0 a5.25 5.25 0 1 0 -10.5 0zM1097.25 73.5 a5.25 5.25 0 1 0 10.5 0 a5.25 5.25 0 1 0 -10.5 0zM1013.25 115.5 a5.25 5.25 0 1 0 10.5 0 a5.25 5.25 0 1 0 -10.5 0zM1202.25 157.5 a5.25 5.25 0 1 0 10.5 0 a5.25 5.25 0 1 0 -10.5 0zM1328.25 136.5 a5.25 5.25 0 1 0 10.5 0 a5.25 5.25 0 1 0 -10.5 0zM992.25 73.5 a5.25 5.25 0 1 0 10.5 0 a5.25 5.25 0 1 0 -10.5 0zM824.25 157.5 a5.25 5.25 0 1 0 10.5 0 a5.25 5.25 0 1 0 -10.5 0z" fill="rgba(69, 90, 48, 1)"></path></g></g><defs><mask id="SvgjsMask1192"><rect width="1440" height="560" fill="#ffffff"></rect></mask><mask id="SvgjsMask1193"><rect width="1440" height="560" fill="white"></rect><path d="M784.87 304.5 a2.63 2.63 0 1 0 5.26 0 a2.63 2.63 0 1 0 -5.26 0zM952.87 283.5 a2.63 2.63 0 1 0 5.26 0 a2.63 2.63 0 1 0 -5.26 0zM763.87 346.5 a2.63 2.63 0 1 0 5.26 0 a2.63 2.63 0 1 0 -5.26 0zM889.87 325.5 a2.63 2.63 0 1 0 5.26 0 a2.63 2.63 0 1 0 -5.26 0zM1204.87 283.5 a2.63 2.63 0 1 0 5.26 0 a2.63 2.63 0 1 0 -5.26 0zM1288.87 283.5 a2.63 2.63 0 1 0 5.26 0 a2.63 2.63 0 1 0 -5.26 0zM1099.87 304.5 a2.63 2.63 0 1 0 5.26 0 a2.63 2.63 0 1 0 -5.26 0zM679.87 283.5 a2.63 2.63 0 1 0 5.26 0 a2.63 2.63 0 1 0 -5.26 0zM742.87 241.5 a2.63 2.63 0 1 0 5.26 0 a2.63 2.63 0 1 0 -5.26 0z" fill="black"></path><path d="M1288.87 304.5 a2.63 2.63 0 1 0 5.26 0 a2.63 2.63 0 1 0 -5.26 0zM1372.87 283.5 a2.63 2.63 0 1 0 5.26 0 a2.63 2.63 0 1 0 -5.26 0zM1309.87 304.5 a2.63 2.63 0 1 0 5.26 0 a2.63 2.63 0 1 0 -5.26 0zM1414.87 283.5 a2.63 2.63 0 1 0 5.26 0 a2.63 2.63 0 1 0 -5.26 0z" fill="black"></path><path d="M910.87 262.5 a2.63 2.63 0 1 0 5.26 0 a2.63 2.63 0 1 0 -5.26 0zM826.87 241.5 a2.63 2.63 0 1 0 5.26 0 a2.63 2.63 0 1 0 -5.26 0zM1246.87 199.5 a2.63 2.63 0 1 0 5.26 0 a2.63 2.63 0 1 0 -5.26 0zM1183.87 220.5 a2.63 2.63 0 1 0 5.26 0 a2.63 2.63 0 1 0 -5.26 0zM1099.87 262.5 a2.63 2.63 0 1 0 5.26 0 a2.63 2.63 0 1 0 -5.26 0zM1120.87 199.5 a2.63 2.63 0 1 0 5.26 0 a2.63 2.63 0 1 0 -5.26 0zM973.87 241.5 a2.63 2.63 0 1 0 5.26 0 a2.63 2.63 0 1 0 -5.26 0z" fill="black"></path><path d="M1246.87 346.5 a2.63 2.63 0 1 0 5.26 0 a2.63 2.63 0 1 0 -5.26 0zM1225.87 367.5 a2.63 2.63 0 1 0 5.26 0 a2.63 2.63 0 1 0 -5.26 0zM1246.87 325.5 a2.63 2.63 0 1 0 5.26 0 a2.63 2.63 0 1 0 -5.26 0z" fill="black"></path><path d="M1393.87 220.5 a2.63 2.63 0 1 0 5.26 0 a2.63 2.63 0 1 0 -5.26 0zM1351.87 199.5 a2.63 2.63 0 1 0 5.26 0 a2.63 2.63 0 1 0 -5.26 0z" fill="black"></path><path d="M1393.87 346.5 a2.63 2.63 0 1 0 5.26 0 a2.63 2.63 0 1 0 -5.26 0z" fill="black"></path><path d="M1141.87 157.5 a2.63 2.63 0 1 0 5.26 0 a2.63 2.63 0 1 0 -5.26 0zM1141.87 178.5 a2.63 2.63 0 1 0 5.26 0 a2.63 2.63 0 1 0 -5.26 0zM1288.87 199.5 a2.63 2.63 0 1 0 5.26 0 a2.63 2.63 0 1 0 -5.26 0z" fill="black"></path><path d="M1225.87 409.5 a2.63 2.63 0 1 0 5.26 0 a2.63 2.63 0 1 0 -5.26 0zM1183.87 388.5 a2.63 2.63 0 1 0 5.26 0 a2.63 2.63 0 1 0 -5.26 0zM1288.87 367.5 a2.63 2.63 0 1 0 5.26 0 a2.63 2.63 0 1 0 -5.26 0zM1309.87 367.5 a2.63 2.63 0 1 0 5.26 0 a2.63 2.63 0 1 0 -5.26 0z" fill="black"></path><path d="M1246.87 430.5 a2.63 2.63 0 1 0 5.26 0 a2.63 2.63 0 1 0 -5.26 0zM1225.87 451.5 a2.63 2.63 0 1 0 5.26 0 a2.63 2.63 0 1 0 -5.26 0zM1330.87 409.5 a2.63 2.63 0 1 0 5.26 0 a2.63 2.63 0 1 0 -5.26 0zM1372.87 409.5 a2.63 2.63 0 1 0 5.26 0 a2.63 2.63 0 1 0 -5.26 0z" fill="black"></path><path d="M805.87 136.5 a2.63 2.63 0 1 0 5.26 0 a2.63 2.63 0 1 0 -5.26 0zM931.87 94.5 a2.63 2.63 0 1 0 5.26 0 a2.63 2.63 0 1 0 -5.26 0zM679.87 157.5 a2.63 2.63 0 1 0 5.26 0 a2.63 2.63 0 1 0 -5.26 0zM1099.87 73.5 a2.63 2.63 0 1 0 5.26 0 a2.63 2.63 0 1 0 -5.26 0zM1015.87 115.5 a2.63 2.63 0 1 0 5.26 0 a2.63 2.63 0 1 0 -5.26 0zM1204.87 157.5 a2.63 2.63 0 1 0 5.26 0 a2.63 2.63 0 1 0 -5.26 0zM1330.87 136.5 a2.63 2.63 0 1 0 5.26 0 a2.63 2.63 0 1 0 -5.26 0zM994.87 73.5 a2.63 2.63 0 1 0 5.26 0 a2.63 2.63 0 1 0 -5.26 0zM826.87 157.5 a2.63 2.63 0 1 0 5.26 0 a2.63 2.63 0 1 0 -5.26 0z" fill="black"></path></mask></defs></svg>