<svg id="visual" viewBox="0 0 900 600" width="900" height="600" xmlns="http://www.w3.org/2000/svg" xmlns:xlink="http://www.w3.org/1999/xlink" version="1.1"><rect x="0" y="0" width="900" height="600" fill="#C62368"></rect><path d="M750 600L742 588.8C734 577.7 718 555.3 691.2 533.2C664.3 511 626.7 489 590 466.8C553.3 444.7 517.7 422.3 515.2 400C512.7 377.7 543.3 355.3 555.8 333.2C568.3 311 562.7 289 578.3 266.8C594 244.7 631 222.3 643.7 200C656.3 177.7 644.7 155.3 626.2 133.2C607.7 111 582.3 89 578 66.8C573.7 44.7 590.3 22.3 598.7 11.2L607 0L900 0L900 11.2C900 22.3 900 44.7 900 66.8C900 89 900 111 900 133.2C900 155.3 900 177.7 900 200C900 222.3 900 244.7 900 266.8C900 289 900 311 900 333.2C900 355.3 900 377.7 900 400C900 422.3 900 444.7 900 466.8C900 489 900 511 900 533.2C900 555.3 900 577.7 900 588.8L900 600Z" fill="#ffffff"></path><path d="M578 600L598.7 588.8C619.3 577.7 660.7 555.3 666.2 533.2C671.7 511 641.3 489 646.3 466.8C651.3 444.7 691.7 422.3 688.2 400C684.7 377.7 637.3 355.3 610.2 333.2C583 311 576 289 569.5 266.8C563 244.7 557 222.3 577.7 200C598.3 177.7 645.7 155.3 652.5 133.2C659.3 111 625.7 89 643.3 66.8C661 44.7 730 22.3 764.5 11.2L799 0L900 0L900 11.2C900 22.3 900 44.7 900 66.8C900 89 900 111 900 133.2C900 155.3 900 177.7 900 200C900 222.3 900 244.7 900 266.8C900 289 900 311 900 333.2C900 355.3 900 377.7 900 400C900 422.3 900 444.7 900 466.8C900 489 900 511 900 533.2C900 555.3 900 577.7 900 588.8L900 600Z" fill="#dcede7"></path><path d="M634 600L638.8 588.8C643.7 577.7 653.3 555.3 670.2 533.2C687 511 711 489 709.3 466.8C707.7 444.7 680.3 422.3 664.3 400C648.3 377.7 643.7 355.3 645.7 333.2C647.7 311 656.3 289 646.5 266.8C636.7 244.7 608.3 222.3 593.8 200C579.3 177.7 578.7 155.3 610.7 133.2C642.7 111 707.3 89 711.5 66.8C715.7 44.7 659.3 22.3 631.2 11.2L603 0L900 0L900 11.2C900 22.3 900 44.7 900 66.8C900 89 900 111 900 133.2C900 155.3 900 177.7 900 200C900 222.3 900 244.7 900 266.8C900 289 900 311 900 333.2C900 355.3 900 377.7 900 400C900 422.3 900 444.7 900 466.8C900 489 900 511 900 533.2C900 555.3 900 577.7 900 588.8L900 600Z" fill="#b9dccf"></path><path d="M792 600L777.2 588.8C762.3 577.7 732.7 555.3 713.8 533.2C695 511 687 489 686.3 466.8C685.7 444.7 692.3 422.3 707 400C721.7 377.7 744.3 355.3 751.2 333.2C758 311 749 289 758 266.8C767 244.7 794 222.3 794.8 200C795.7 177.7 770.3 155.3 752.7 133.2C735 111 725 89 723.5 66.8C722 44.7 729 22.3 732.5 11.2L736 0L900 0L900 11.2C900 22.3 900 44.7 900 66.8C900 89 900 111 900 133.2C900 155.3 900 177.7 900 200C900 222.3 900 244.7 900 266.8C900 289 900 311 900 333.2C900 355.3 900 377.7 900 400C900 422.3 900 444.7 900 466.8C900 489 900 511 900 533.2C900 555.3 900 577.7 900 588.8L900 600Z" fill="#96cab7"></path><path d="M689 600L710.7 588.8C732.3 577.7 775.7 555.3 793.3 533.2C811 511 803 489 797.5 466.8C792 444.7 789 422.3 784.3 400C779.7 377.7 773.3 355.3 776.3 333.2C779.3 311 791.7 289 784.5 266.8C777.3 244.7 750.7 222.3 748.3 200C746 177.7 768 155.3 784.8 133.2C801.7 111 813.3 89 804 66.8C794.7 44.7 764.3 22.3 749.2 11.2L734 0L900 0L900 11.2C900 22.3 900 44.7 900 66.8C900 89 900 111 900 133.2C900 155.3 900 177.7 900 200C900 222.3 900 244.7 900 266.8C900 289 900 311 900 333.2C900 355.3 900 377.7 900 400C900 422.3 900 444.7 900 466.8C900 489 900 511 900 533.2C900 555.3 900 577.7 900 588.8L900 600Z" fill="#71b8a0"></path><path d="M790 600L797.5 588.8C805 577.7 820 555.3 823.2 533.2C826.3 511 817.7 489 806 466.8C794.3 444.7 779.7 422.3 783.5 400C787.3 377.7 809.7 355.3 806.3 333.2C803 311 774 289 780.2 266.8C786.3 244.7 827.7 222.3 847.5 200C867.3 177.7 865.7 155.3 863 133.2C860.3 111 856.7 89 855 66.8C853.3 44.7 853.7 22.3 853.8 11.2L854 0L900 0L900 11.2C900 22.3 900 44.7 900 66.8C900 89 900 111 900 133.2C900 155.3 900 177.7 900 200C900 222.3 900 244.7 900 266.8C900 289 900 311 900 333.2C900 355.3 900 377.7 900 400C900 422.3 900 444.7 900 466.8C900 489 900 511 900 533.2C900 555.3 900 577.7 900 588.8L900 600Z" fill="#49a689"></path><path d="M804 600L815.3 588.8C826.7 577.7 849.3 555.3 854 533.2C858.7 511 845.3 489 839.3 466.8C833.3 444.7 834.7 422.3 836 400C837.3 377.7 838.7 355.3 834 333.2C829.3 311 818.7 289 812.8 266.8C807 244.7 806 222.3 810.8 200C815.7 177.7 826.3 155.3 828.7 133.2C831 111 825 89 833.5 66.8C842 44.7 865 22.3 876.5 11.2L888 0L900 0L900 11.2C900 22.3 900 44.7 900 66.8C900 89 900 111 900 133.2C900 155.3 900 177.7 900 200C900 222.3 900 244.7 900 266.8C900 289 900 311 900 333.2C900 355.3 900 377.7 900 400C900 422.3 900 444.7 900 466.8C900 489 900 511 900 533.2C900 555.3 900 577.7 900 588.8L900 600Z" fill="#009473"></path></svg>